<svg width="343" xmlns="http://www.w3.org/2000/svg" height="52" id="screenshot-7376a922-df69-8089-8006-a0d0e8e789ee" viewBox="0 0 343 52" xmlns:xlink="http://www.w3.org/1999/xlink" fill="none" version="1.1"><g id="shape-7376a922-df69-8089-8006-a0d0e8e789ee" rx="0" ry="0"><g id="shape-7376a922-df69-8089-8006-a0d08e034997"><g class="fills" id="fills-7376a922-df69-8089-8006-a0d08e034997"><path d="M87,0 h256 a0,0 0 0 1 0,0 v27 a25,25 0 0 1 -25,25 h-206 a25,25 0 0 1 -25,-25 v-27 a0,0 0 0 1 0,0 z" x="87" y="0" transform="matrix(1.000000, 0.000000, 0.000000, 1.000000, 0.000000, 0.000000)" width="256" height="52" style="fill: rgb(44, 30, 63); fill-opacity: 1;"/></g></g><g id="shape-7376a922-df69-8089-8006-a0d045cfaf28"><g class="fills" id="fills-7376a922-df69-8089-8006-a0d045cfaf28"><path d="M0,0 h256 a0,0 0 0 1 0,0 v14 a25,25 0 0 1 -25,25 h-206 a25,25 0 0 1 -25,-25 v-14 a0,0 0 0 1 0,0 z" x="0" y="0" transform="matrix(1.000000, 0.000000, 0.000000, 1.000000, 0.000000, 0.000000)" width="256" height="39" style="fill: rgb(1, 114, 174); fill-opacity: 0.5;"/></g></g></g></svg>