<svg width="367" xmlns="http://www.w3.org/2000/svg" height="68" id="screenshot-49dd6c14-eefa-80f2-8006-a2aef622726a" viewBox="0 0 367 68" xmlns:xlink="http://www.w3.org/1999/xlink" fill="none" version="1.1"><g id="shape-49dd6c14-eefa-80f2-8006-a2aef622726a"><defs><clipPath id="frame-clip-49dd6c14-eefa-80f2-8006-a2aef622726a-render-1" class="frame-clip frame-clip-def"><rect rx="0" ry="0" x="0" y="0" width="367" height="68" transform="matrix(1.000000, 0.000000, 0.000000, 1.000000, 0.000000, 0.000000)"/></clipPath></defs><g class="frame-container-wrapper"><g class="frame-container-blur"><g class="frame-container-shadows"><g clip-path="url(#frame-clip-49dd6c14-eefa-80f2-8006-a2aef622726a-render-1)" fill="none"><g class="fills" id="fills-49dd6c14-eefa-80f2-8006-a2aef622726a"><rect width="367" height="68" class="frame-background" x="0" transform="matrix(1.000000, 0.000000, 0.000000, 1.000000, 0.000000, 0.000000)" style="fill: rgb(255, 255, 255); fill-opacity: 0;" ry="0" rx="0" y="0"/></g><g class="frame-children"><g id="shape-49dd6c14-eefa-80f2-8006-a2af7a1bb4fe"><g class="fills" id="fills-49dd6c14-eefa-80f2-8006-a2af7a1bb4fe"><path d="M16.3658447265625,0L0,40L211.48779296875,39L228,0L16.3658447265625,0" style="fill: rgb(217, 54, 139); fill-opacity: 1;"/></g><g id="strokes-6219bdaa-56d8-805a-8006-a2b8b23a6a4e-49dd6c14-eefa-80f2-8006-a2af7a1bb4fe" class="strokes"><g class="stroke-shape"><path d="M16.3658447265625,0L0,40L211.48779296875,39L228,0L16.3658447265625,0" style="fill: none; stroke-width: 0; stroke: rgb(0, 0, 0); stroke-opacity: 1;"/></g></g></g><g id="shape-49dd6c14-eefa-80f2-8006-a2b1d97698c3"><g class="fills" id="fills-49dd6c14-eefa-80f2-8006-a2b1d97698c3"><path d="M95.8172607421875,0L73,54L343.6751708984375,54L367,0L95.8172607421875,0" style="fill: rgb(1, 114, 174); fill-opacity: 0.5;"/></g><g id="strokes-6219bdaa-56d8-805a-8006-a2b8b23b1c16-49dd6c14-eefa-80f2-8006-a2b1d97698c3" class="strokes"><g class="stroke-shape"><path d="M95.8172607421875,0L73,54L343.6751708984375,54L367,0L95.8172607421875,0" style="fill: none; stroke-width: 0; stroke: rgb(0, 0, 0); stroke-opacity: 1;"/></g></g></g><g id="shape-49dd6c14-eefa-80f2-8006-a2b275db4fc1"><g class="fills" id="fills-49dd6c14-eefa-80f2-8006-a2b275db4fc1"><path d="M291.3333740234375,0L275,40L297,40L314,0L291.3333740234375,0" style="fill: rgb(0, 0, 0); fill-opacity: 1;"/></g><g id="strokes-6219bdaa-56d8-805a-8006-a2b8b23b9f4d-49dd6c14-eefa-80f2-8006-a2b275db4fc1" class="strokes"><g class="stroke-shape"><path d="M291.3333740234375,0L275,40L297,40L314,0L291.3333740234375,0" style="fill: none; stroke-width: 0; stroke: rgb(0, 0, 0); stroke-opacity: 1;"/></g></g></g><g id="shape-49dd6c14-eefa-80f2-8006-a2b2f6448344"><g class="fills" id="fills-49dd6c14-eefa-80f2-8006-a2b2f6448344"><path d="M281,0L252,68L260,68L289,0L281,0" style="fill: rgb(0, 0, 0); fill-opacity: 1;"/></g><g id="strokes-6219bdaa-56d8-805a-8006-a2b8b23c1eff-49dd6c14-eefa-80f2-8006-a2b2f6448344" class="strokes"><g class="stroke-shape"><path d="M281,0L252,68L260,68L289,0L281,0" style="fill: none; stroke-width: 0; stroke: rgb(0, 0, 0); stroke-opacity: 1;"/></g></g></g></g></g></g></g></g></g></svg>